<svg width="1423" height="307" viewBox="0 0 1423 307" fill="none" xmlns="http://www.w3.org/2000/svg">
<rect x="0.5" y="0.5" width="302" height="305.651" rx="52.5" fill="#2A9D8F" stroke="white"/>
<path d="M214.471 133.471V222.989H87.3145V133.472L150.88 85.4368L214.471 133.471Z" fill="#2A9D8F" stroke="white" stroke-width="14"/>
<path d="M485.161 132.185H454.675C454.118 128.24 452.981 124.737 451.264 121.675C449.547 118.566 447.343 115.921 444.652 113.74C441.961 111.559 438.852 109.889 435.325 108.729C431.845 107.569 428.063 106.989 423.98 106.989C416.602 106.989 410.176 108.821 404.7 112.487C399.225 116.106 394.979 121.396 391.963 128.356C388.947 135.27 387.439 143.669 387.439 153.552C387.439 163.714 388.947 172.252 391.963 179.166C395.026 186.08 399.295 191.3 404.77 194.827C410.245 198.353 416.579 200.116 423.771 200.116C427.808 200.116 431.544 199.583 434.977 198.516C438.457 197.448 441.543 195.894 444.234 193.852C446.926 191.764 449.153 189.235 450.916 186.266C452.726 183.296 453.979 179.909 454.675 176.104L485.161 176.243C484.372 182.785 482.4 189.096 479.244 195.175C476.135 201.207 471.936 206.613 466.646 211.392C461.403 216.125 455.139 219.883 447.854 222.668C440.615 225.405 432.425 226.774 423.284 226.774C410.57 226.774 399.202 223.897 389.179 218.143C379.203 212.39 371.314 204.061 365.514 193.156C359.76 182.252 356.884 169.051 356.884 153.552C356.884 138.008 359.807 124.784 365.653 113.879C371.5 102.975 379.435 94.6689 389.457 88.9616C399.48 83.2078 410.756 80.3309 423.284 80.3309C431.544 80.3309 439.2 81.4909 446.253 83.811C453.352 86.1311 459.64 89.5184 465.115 93.9729C470.59 98.3811 475.045 103.787 478.479 110.19C481.959 116.594 484.186 123.925 485.161 132.185ZM536.701 226.844C529.88 226.844 523.801 225.66 518.465 223.294C513.129 220.881 508.906 217.331 505.798 212.645C502.735 207.912 501.204 202.019 501.204 194.966C501.204 189.026 502.294 184.038 504.475 180.001C506.656 175.964 509.626 172.716 513.384 170.257C517.143 167.798 521.412 165.942 526.191 164.689C531.017 163.436 536.075 162.554 541.364 162.044C547.582 161.394 552.594 160.791 556.398 160.234C560.203 159.631 562.964 158.749 564.681 157.589C566.398 156.429 567.256 154.713 567.256 152.439V152.021C567.256 147.613 565.864 144.203 563.08 141.79C560.343 139.377 556.445 138.17 551.387 138.17C546.051 138.17 541.805 139.354 538.65 141.72C535.495 144.04 533.406 146.963 532.386 150.49L504.962 148.263C506.354 141.766 509.092 136.152 513.175 131.419C517.259 126.64 522.525 122.974 528.975 120.422C535.471 117.823 542.988 116.524 551.526 116.524C557.466 116.524 563.15 117.22 568.579 118.612C574.054 120.004 578.903 122.162 583.126 125.085C587.395 128.008 590.759 131.767 593.218 136.361C595.677 140.908 596.907 146.36 596.907 152.717V224.825H568.788V210H567.952C566.236 213.341 563.939 216.287 561.062 218.839C558.185 221.345 554.728 223.317 550.691 224.756C546.654 226.148 541.991 226.844 536.701 226.844ZM545.192 206.381C549.554 206.381 553.406 205.522 556.746 203.805C560.087 202.042 562.709 199.676 564.612 196.706C566.514 193.736 567.465 190.372 567.465 186.614V175.268C566.537 175.872 565.261 176.428 563.637 176.939C562.059 177.403 560.273 177.844 558.278 178.261C556.282 178.632 554.287 178.98 552.292 179.305C550.297 179.584 548.487 179.839 546.863 180.071C543.383 180.581 540.344 181.393 537.745 182.507C535.147 183.621 533.128 185.129 531.69 187.031C530.251 188.887 529.532 191.207 529.532 193.991C529.532 198.028 530.994 201.114 533.917 203.248C536.887 205.337 540.645 206.381 545.192 206.381ZM708.862 148.402L681.717 150.072C681.253 147.752 680.256 145.664 678.724 143.808C677.193 141.906 675.175 140.398 672.669 139.284C670.21 138.124 667.263 137.544 663.83 137.544C659.236 137.544 655.361 138.518 652.206 140.467C649.051 142.37 647.473 144.922 647.473 148.123C647.473 150.676 648.494 152.833 650.536 154.597C652.577 156.36 656.08 157.775 661.045 158.842L680.395 162.74C690.789 164.874 698.538 168.308 703.642 173.041C708.746 177.774 711.298 183.992 711.298 191.695C711.298 198.701 709.233 204.849 705.104 210.139C701.02 215.429 695.406 219.559 688.26 222.528C681.161 225.452 672.971 226.913 663.69 226.913C649.538 226.913 638.262 223.967 629.864 218.074C621.511 212.134 616.616 204.061 615.178 193.852L644.341 192.321C645.223 196.636 647.357 199.931 650.744 202.204C654.132 204.432 658.47 205.545 663.76 205.545C668.957 205.545 673.133 204.548 676.288 202.552C679.49 200.511 681.114 197.889 681.161 194.687C681.114 191.996 679.977 189.792 677.75 188.075C675.523 186.312 672.089 184.966 667.449 184.038L648.935 180.349C638.494 178.261 630.722 174.642 625.618 169.491C620.56 164.341 618.031 157.775 618.031 149.794C618.031 142.927 619.887 137.01 623.599 132.045C627.358 127.08 632.625 123.252 639.399 120.561C646.22 117.87 654.201 116.524 663.342 116.524C676.845 116.524 687.471 119.378 695.22 125.085C703.016 130.793 707.563 138.565 708.862 148.402ZM760.455 226.844C753.634 226.844 747.555 225.66 742.219 223.294C736.883 220.881 732.66 217.331 729.551 212.645C726.489 207.912 724.958 202.019 724.958 194.966C724.958 189.026 726.048 184.038 728.229 180.001C730.41 175.964 733.38 172.716 737.138 170.257C740.897 167.798 745.166 165.942 749.945 164.689C754.771 163.436 759.828 162.554 765.118 162.044C771.336 161.394 776.347 160.791 780.152 160.234C783.957 159.631 786.718 158.749 788.435 157.589C790.152 156.429 791.01 154.713 791.01 152.439V152.021C791.01 147.613 789.618 144.203 786.834 141.79C784.096 139.377 780.199 138.17 775.141 138.17C769.805 138.17 765.559 139.354 762.404 141.72C759.248 144.04 757.16 146.963 756.14 150.49L728.716 148.263C730.108 141.766 732.846 136.152 736.929 131.419C741.013 126.64 746.279 122.974 752.729 120.422C759.225 117.823 766.742 116.524 775.28 116.524C781.22 116.524 786.904 117.22 792.333 118.612C797.808 120.004 802.657 122.162 806.88 125.085C811.149 128.008 814.513 131.767 816.972 136.361C819.431 140.908 820.661 146.36 820.661 152.717V224.825H792.542V210H791.706C789.989 213.341 787.693 216.287 784.816 218.839C781.939 221.345 778.482 223.317 774.445 224.756C770.408 226.148 765.745 226.844 760.455 226.844ZM768.946 206.381C773.308 206.381 777.159 205.522 780.5 203.805C783.841 202.042 786.463 199.676 788.365 196.706C790.268 193.736 791.219 190.372 791.219 186.614V175.268C790.291 175.872 789.015 176.428 787.391 176.939C785.813 177.403 784.027 177.844 782.032 178.261C780.036 178.632 778.041 178.98 776.046 179.305C774.051 179.584 772.241 179.839 770.617 180.071C767.137 180.581 764.097 181.393 761.499 182.507C758.9 183.621 756.882 185.129 755.444 187.031C754.005 188.887 753.286 191.207 753.286 193.991C753.286 198.028 754.748 201.114 757.671 203.248C760.641 205.337 764.399 206.381 768.946 206.381ZM868.791 224.825H836.495L885.704 82.2797H924.542L973.681 224.825H941.386L905.68 114.854H904.566L868.791 224.825ZM866.772 168.795H943.056V192.321H866.772V168.795ZM1019.93 163.018V224.825H990.282V82.2797H1019.1V136.778H1020.35C1022.76 130.468 1026.66 125.526 1032.04 121.953C1037.43 118.334 1044.18 116.524 1052.3 116.524C1059.72 116.524 1066.19 118.148 1071.72 121.396C1077.28 124.598 1081.6 129.215 1084.66 135.247C1087.77 141.233 1089.3 148.402 1089.26 156.754V224.825H1059.61V162.044C1059.65 155.455 1057.98 150.328 1054.59 146.662C1051.25 142.996 1046.57 141.163 1040.53 141.163C1036.5 141.163 1032.92 142.022 1029.82 143.739C1026.75 145.455 1024.34 147.961 1022.58 151.256C1020.86 154.504 1019.98 158.425 1019.93 163.018ZM1160.89 226.913C1150.08 226.913 1140.73 224.616 1132.84 220.023C1125 215.382 1118.95 208.933 1114.68 200.673C1110.41 192.367 1108.27 182.739 1108.27 171.788C1108.27 160.745 1110.41 151.093 1114.68 142.834C1118.95 134.528 1125 128.078 1132.84 123.484C1140.73 118.844 1150.08 116.524 1160.89 116.524C1171.71 116.524 1181.03 118.844 1188.87 123.484C1196.76 128.078 1202.84 134.528 1207.11 142.834C1211.38 151.093 1213.51 160.745 1213.51 171.788C1213.51 182.739 1211.38 192.367 1207.11 200.673C1202.84 208.933 1196.76 215.382 1188.87 220.023C1181.03 224.616 1171.71 226.913 1160.89 226.913ZM1161.03 203.945C1165.95 203.945 1170.06 202.552 1173.35 199.768C1176.65 196.938 1179.13 193.087 1180.8 188.214C1182.52 183.342 1183.38 177.797 1183.38 171.579C1183.38 165.362 1182.52 159.817 1180.8 154.945C1179.13 150.072 1176.65 146.221 1173.35 143.391C1170.06 140.56 1165.95 139.145 1161.03 139.145C1156.07 139.145 1151.89 140.56 1148.5 143.391C1145.16 146.221 1142.64 150.072 1140.92 154.945C1139.25 159.817 1138.41 165.362 1138.41 171.579C1138.41 177.797 1139.25 183.342 1140.92 188.214C1142.64 193.087 1145.16 196.938 1148.5 199.768C1151.89 202.552 1156.07 203.945 1161.03 203.945ZM1232.79 224.825V117.916H1261.54V136.57H1262.65C1264.6 129.934 1267.87 124.923 1272.47 121.535C1277.06 118.102 1282.35 116.385 1288.34 116.385C1289.82 116.385 1291.42 116.478 1293.14 116.663C1294.86 116.849 1296.36 117.104 1297.66 117.429V143.739C1296.27 143.321 1294.34 142.95 1291.89 142.625C1289.43 142.3 1287.18 142.138 1285.13 142.138C1280.77 142.138 1276.87 143.089 1273.44 144.991C1270.05 146.847 1267.36 149.446 1265.37 152.787C1263.42 156.128 1262.44 159.979 1262.44 164.341V224.825H1232.79ZM1340.42 226.844C1333.59 226.844 1327.52 225.66 1322.18 223.294C1316.84 220.881 1312.62 217.331 1309.51 212.645C1306.45 207.912 1304.92 202.019 1304.92 194.966C1304.92 189.026 1306.01 184.038 1308.19 180.001C1310.37 175.964 1313.34 172.716 1317.1 170.257C1320.86 167.798 1325.13 165.942 1329.91 164.689C1334.73 163.436 1339.79 162.554 1345.08 162.044C1351.3 161.394 1356.31 160.791 1360.11 160.234C1363.92 159.631 1366.68 158.749 1368.4 157.589C1370.11 156.429 1370.97 154.713 1370.97 152.439V152.021C1370.97 147.613 1369.58 144.203 1366.8 141.79C1364.06 139.377 1360.16 138.17 1355.1 138.17C1349.77 138.17 1345.52 139.354 1342.36 141.72C1339.21 144.04 1337.12 146.963 1336.1 150.49L1308.68 148.263C1310.07 141.766 1312.81 136.152 1316.89 131.419C1320.97 126.64 1326.24 122.974 1332.69 120.422C1339.19 117.823 1346.7 116.524 1355.24 116.524C1361.18 116.524 1366.86 117.22 1372.29 118.612C1377.77 120.004 1382.62 122.162 1386.84 125.085C1391.11 128.008 1394.47 131.767 1396.93 136.361C1399.39 140.908 1400.62 146.36 1400.62 152.717V224.825H1372.5V210H1371.67C1369.95 213.341 1367.65 216.287 1364.78 218.839C1361.9 221.345 1358.44 223.317 1354.41 224.756C1350.37 226.148 1345.71 226.844 1340.42 226.844ZM1348.91 206.381C1353.27 206.381 1357.12 205.522 1360.46 203.805C1363.8 202.042 1366.42 199.676 1368.33 196.706C1370.23 193.736 1371.18 190.372 1371.18 186.614V175.268C1370.25 175.872 1368.98 176.428 1367.35 176.939C1365.77 177.403 1363.99 177.844 1361.99 178.261C1360 178.632 1358 178.98 1356.01 179.305C1354.01 179.584 1352.2 179.839 1350.58 180.071C1347.1 180.581 1344.06 181.393 1341.46 182.507C1338.86 183.621 1336.84 185.129 1335.4 187.031C1333.97 188.887 1333.25 191.207 1333.25 193.991C1333.25 198.028 1334.71 201.114 1337.63 203.248C1340.6 205.337 1344.36 206.381 1348.91 206.381Z" fill="#2A9D8F"/>
</svg>
