<svg width="1439" height="307" viewBox="0 0 1439 307" fill="none" xmlns="http://www.w3.org/2000/svg">
<rect x="0.5" y="0.5" width="302" height="305.651" rx="52.5" fill="#2A9D8F" stroke="white"/>
<path d="M209.471 135.961V217.989H92.3145V135.959L150.881 91.7034L209.471 135.961Z" fill="#2A9D8F" stroke="white" stroke-width="24"/>
<path d="M501.161 132.185H470.675C470.118 128.24 468.981 124.737 467.264 121.675C465.547 118.566 463.343 115.921 460.652 113.74C457.961 111.559 454.852 109.889 451.325 108.729C447.845 107.569 444.063 106.989 439.98 106.989C432.602 106.989 426.176 108.821 420.7 112.487C415.225 116.106 410.979 121.396 407.963 128.356C404.947 135.27 403.439 143.669 403.439 153.552C403.439 163.714 404.947 172.252 407.963 179.166C411.026 186.08 415.295 191.3 420.77 194.827C426.245 198.353 432.579 200.116 439.771 200.116C443.808 200.116 447.544 199.583 450.977 198.516C454.457 197.448 457.543 195.894 460.234 193.852C462.926 191.764 465.153 189.235 466.916 186.266C468.726 183.296 469.979 179.909 470.675 176.104L501.161 176.243C500.372 182.785 498.4 189.096 495.244 195.175C492.135 201.207 487.936 206.613 482.646 211.392C477.403 216.125 471.139 219.883 463.854 222.668C456.615 225.405 448.425 226.774 439.284 226.774C426.57 226.774 415.202 223.897 405.179 218.143C395.203 212.39 387.314 204.061 381.514 193.156C375.76 182.252 372.884 169.051 372.884 153.552C372.884 138.008 375.807 124.784 381.653 113.879C387.5 102.975 395.435 94.6689 405.457 88.9616C415.48 83.2078 426.756 80.3309 439.284 80.3309C447.544 80.3309 455.2 81.4909 462.253 83.811C469.352 86.1311 475.64 89.5184 481.115 93.9729C486.59 98.3811 491.045 103.787 494.479 110.19C497.959 116.594 500.186 123.925 501.161 132.185ZM552.701 226.844C545.88 226.844 539.801 225.66 534.465 223.294C529.129 220.881 524.906 217.331 521.798 212.645C518.735 207.912 517.204 202.019 517.204 194.966C517.204 189.026 518.294 184.038 520.475 180.001C522.656 175.964 525.626 172.716 529.384 170.257C533.143 167.798 537.412 165.942 542.191 164.689C547.017 163.436 552.075 162.554 557.364 162.044C563.582 161.394 568.594 160.791 572.398 160.234C576.203 159.631 578.964 158.749 580.681 157.589C582.398 156.429 583.256 154.713 583.256 152.439V152.021C583.256 147.613 581.864 144.203 579.08 141.79C576.343 139.377 572.445 138.17 567.387 138.17C562.051 138.17 557.805 139.354 554.65 141.72C551.495 144.04 549.406 146.963 548.386 150.49L520.962 148.263C522.354 141.766 525.092 136.152 529.175 131.419C533.259 126.64 538.525 122.974 544.975 120.422C551.471 117.823 558.988 116.524 567.526 116.524C573.466 116.524 579.15 117.22 584.579 118.612C590.054 120.004 594.903 122.162 599.126 125.085C603.395 128.008 606.759 131.767 609.218 136.361C611.677 140.908 612.907 146.36 612.907 152.717V224.825H584.788V210H583.952C582.236 213.341 579.939 216.287 577.062 218.839C574.185 221.345 570.728 223.317 566.691 224.756C562.654 226.148 557.991 226.844 552.701 226.844ZM561.192 206.381C565.554 206.381 569.406 205.522 572.746 203.805C576.087 202.042 578.709 199.676 580.612 196.706C582.514 193.736 583.465 190.372 583.465 186.614V175.268C582.537 175.872 581.261 176.428 579.637 176.939C578.059 177.403 576.273 177.844 574.278 178.261C572.282 178.632 570.287 178.98 568.292 179.305C566.297 179.584 564.487 179.839 562.863 180.071C559.383 180.581 556.344 181.393 553.745 182.507C551.147 183.621 549.128 185.129 547.69 187.031C546.251 188.887 545.532 191.207 545.532 193.991C545.532 198.028 546.994 201.114 549.917 203.248C552.887 205.337 556.645 206.381 561.192 206.381ZM724.862 148.402L697.717 150.072C697.253 147.752 696.256 145.664 694.724 143.808C693.193 141.906 691.175 140.398 688.669 139.284C686.21 138.124 683.263 137.544 679.83 137.544C675.236 137.544 671.361 138.518 668.206 140.467C665.051 142.37 663.473 144.922 663.473 148.123C663.473 150.676 664.494 152.833 666.536 154.597C668.577 156.36 672.08 157.775 677.045 158.842L696.395 162.74C706.789 164.874 714.538 168.308 719.642 173.041C724.746 177.774 727.298 183.992 727.298 191.695C727.298 198.701 725.233 204.849 721.104 210.139C717.02 215.429 711.406 219.559 704.26 222.528C697.161 225.452 688.971 226.913 679.69 226.913C665.538 226.913 654.262 223.967 645.864 218.074C637.511 212.134 632.616 204.061 631.178 193.852L660.341 192.321C661.223 196.636 663.357 199.931 666.744 202.204C670.132 204.432 674.47 205.545 679.76 205.545C684.957 205.545 689.133 204.548 692.288 202.552C695.49 200.511 697.114 197.889 697.161 194.687C697.114 191.996 695.977 189.792 693.75 188.075C691.523 186.312 688.089 184.966 683.449 184.038L664.935 180.349C654.494 178.261 646.722 174.642 641.618 169.491C636.56 164.341 634.031 157.775 634.031 149.794C634.031 142.927 635.887 137.01 639.599 132.045C643.358 127.08 648.625 123.252 655.399 120.561C662.22 117.87 670.201 116.524 679.342 116.524C692.845 116.524 703.471 119.378 711.22 125.085C719.016 130.793 723.563 138.565 724.862 148.402ZM776.455 226.844C769.634 226.844 763.555 225.66 758.219 223.294C752.883 220.881 748.66 217.331 745.551 212.645C742.489 207.912 740.958 202.019 740.958 194.966C740.958 189.026 742.048 184.038 744.229 180.001C746.41 175.964 749.38 172.716 753.138 170.257C756.897 167.798 761.166 165.942 765.945 164.689C770.771 163.436 775.828 162.554 781.118 162.044C787.336 161.394 792.347 160.791 796.152 160.234C799.957 159.631 802.718 158.749 804.435 157.589C806.152 156.429 807.01 154.713 807.01 152.439V152.021C807.01 147.613 805.618 144.203 802.834 141.79C800.096 139.377 796.199 138.17 791.141 138.17C785.805 138.17 781.559 139.354 778.404 141.72C775.248 144.04 773.16 146.963 772.14 150.49L744.716 148.263C746.108 141.766 748.846 136.152 752.929 131.419C757.013 126.64 762.279 122.974 768.729 120.422C775.225 117.823 782.742 116.524 791.28 116.524C797.22 116.524 802.904 117.22 808.333 118.612C813.808 120.004 818.657 122.162 822.88 125.085C827.149 128.008 830.513 131.767 832.972 136.361C835.431 140.908 836.661 146.36 836.661 152.717V224.825H808.542V210H807.706C805.989 213.341 803.693 216.287 800.816 218.839C797.939 221.345 794.482 223.317 790.445 224.756C786.408 226.148 781.745 226.844 776.455 226.844ZM784.946 206.381C789.308 206.381 793.159 205.522 796.5 203.805C799.841 202.042 802.463 199.676 804.365 196.706C806.268 193.736 807.219 190.372 807.219 186.614V175.268C806.291 175.872 805.015 176.428 803.391 176.939C801.813 177.403 800.027 177.844 798.032 178.261C796.036 178.632 794.041 178.98 792.046 179.305C790.051 179.584 788.241 179.839 786.617 180.071C783.137 180.581 780.097 181.393 777.499 182.507C774.9 183.621 772.882 185.129 771.444 187.031C770.005 188.887 769.286 191.207 769.286 193.991C769.286 198.028 770.748 201.114 773.671 203.248C776.641 205.337 780.399 206.381 784.946 206.381ZM884.791 224.825H852.495L901.704 82.2797H940.542L989.681 224.825H957.386L921.68 114.854H920.566L884.791 224.825ZM882.772 168.795H959.056V192.321H882.772V168.795ZM1035.93 163.018V224.825H1006.28V82.2797H1035.1V136.778H1036.35C1038.76 130.468 1042.66 125.526 1048.04 121.953C1053.43 118.334 1060.18 116.524 1068.3 116.524C1075.72 116.524 1082.19 118.148 1087.72 121.396C1093.28 124.598 1097.6 129.215 1100.66 135.247C1103.77 141.233 1105.3 148.402 1105.26 156.754V224.825H1075.61V162.044C1075.65 155.455 1073.98 150.328 1070.59 146.662C1067.25 142.996 1062.57 141.163 1056.53 141.163C1052.5 141.163 1048.92 142.022 1045.82 143.739C1042.75 145.455 1040.34 147.961 1038.58 151.256C1036.86 154.504 1035.98 158.425 1035.93 163.018ZM1176.89 226.913C1166.08 226.913 1156.73 224.616 1148.84 220.023C1141 215.382 1134.95 208.933 1130.68 200.673C1126.41 192.367 1124.27 182.739 1124.27 171.788C1124.27 160.745 1126.41 151.093 1130.68 142.834C1134.95 134.528 1141 128.078 1148.84 123.484C1156.73 118.844 1166.08 116.524 1176.89 116.524C1187.71 116.524 1197.03 118.844 1204.87 123.484C1212.76 128.078 1218.84 134.528 1223.11 142.834C1227.38 151.093 1229.51 160.745 1229.51 171.788C1229.51 182.739 1227.38 192.367 1223.11 200.673C1218.84 208.933 1212.76 215.382 1204.87 220.023C1197.03 224.616 1187.71 226.913 1176.89 226.913ZM1177.03 203.945C1181.95 203.945 1186.06 202.552 1189.35 199.768C1192.65 196.938 1195.13 193.087 1196.8 188.214C1198.52 183.342 1199.38 177.797 1199.38 171.579C1199.38 165.362 1198.52 159.817 1196.8 154.945C1195.13 150.072 1192.65 146.221 1189.35 143.391C1186.06 140.56 1181.95 139.145 1177.03 139.145C1172.07 139.145 1167.89 140.56 1164.5 143.391C1161.16 146.221 1158.64 150.072 1156.92 154.945C1155.25 159.817 1154.41 165.362 1154.41 171.579C1154.41 177.797 1155.25 183.342 1156.92 188.214C1158.64 193.087 1161.16 196.938 1164.5 199.768C1167.89 202.552 1172.07 203.945 1177.03 203.945ZM1248.79 224.825V117.916H1277.54V136.57H1278.65C1280.6 129.934 1283.87 124.923 1288.47 121.535C1293.06 118.102 1298.35 116.385 1304.34 116.385C1305.82 116.385 1307.42 116.478 1309.14 116.663C1310.86 116.849 1312.36 117.104 1313.66 117.429V143.739C1312.27 143.321 1310.34 142.95 1307.89 142.625C1305.43 142.3 1303.18 142.138 1301.13 142.138C1296.77 142.138 1292.87 143.089 1289.44 144.991C1286.05 146.847 1283.36 149.446 1281.37 152.787C1279.42 156.128 1278.44 159.979 1278.44 164.341V224.825H1248.79ZM1356.42 226.844C1349.59 226.844 1343.52 225.66 1338.18 223.294C1332.84 220.881 1328.62 217.331 1325.51 212.645C1322.45 207.912 1320.92 202.019 1320.92 194.966C1320.92 189.026 1322.01 184.038 1324.19 180.001C1326.37 175.964 1329.34 172.716 1333.1 170.257C1336.86 167.798 1341.13 165.942 1345.91 164.689C1350.73 163.436 1355.79 162.554 1361.08 162.044C1367.3 161.394 1372.31 160.791 1376.11 160.234C1379.92 159.631 1382.68 158.749 1384.4 157.589C1386.11 156.429 1386.97 154.713 1386.97 152.439V152.021C1386.97 147.613 1385.58 144.203 1382.8 141.79C1380.06 139.377 1376.16 138.17 1371.1 138.17C1365.77 138.17 1361.52 139.354 1358.36 141.72C1355.21 144.04 1353.12 146.963 1352.1 150.49L1324.68 148.263C1326.07 141.766 1328.81 136.152 1332.89 131.419C1336.97 126.64 1342.24 122.974 1348.69 120.422C1355.19 117.823 1362.7 116.524 1371.24 116.524C1377.18 116.524 1382.86 117.22 1388.29 118.612C1393.77 120.004 1398.62 122.162 1402.84 125.085C1407.11 128.008 1410.47 131.767 1412.93 136.361C1415.39 140.908 1416.62 146.36 1416.62 152.717V224.825H1388.5V210H1387.67C1385.95 213.341 1383.65 216.287 1380.78 218.839C1377.9 221.345 1374.44 223.317 1370.41 224.756C1366.37 226.148 1361.71 226.844 1356.42 226.844ZM1364.91 206.381C1369.27 206.381 1373.12 205.522 1376.46 203.805C1379.8 202.042 1382.42 199.676 1384.33 196.706C1386.23 193.736 1387.18 190.372 1387.18 186.614V175.268C1386.25 175.872 1384.98 176.428 1383.35 176.939C1381.77 177.403 1379.99 177.844 1377.99 178.261C1376 178.632 1374 178.98 1372.01 179.305C1370.01 179.584 1368.2 179.839 1366.58 180.071C1363.1 180.581 1360.06 181.393 1357.46 182.507C1354.86 183.621 1352.84 185.129 1351.4 187.031C1349.97 188.887 1349.25 191.207 1349.25 193.991C1349.25 198.028 1350.71 201.114 1353.63 203.248C1356.6 205.337 1360.36 206.381 1364.91 206.381Z" fill="black"/>
</svg>
