<svg width="200" height="200" viewBox="0 0 200 200" fill="none" xmlns="http://www.w3.org/2000/svg">
<path fill-rule="evenodd" clip-rule="evenodd" d="M50.5 40.5C63.6283 27.3718 81.4339 19.9965 100 19.9965C118.566 19.9965 136.372 27.3718 149.5 40.5C162.628 53.6282 170.004 71.4339 170.004 90C170.004 108.566 162.628 126.372 149.5 139.5L100 189L50.5 139.5C43.9992 133 38.8424 125.283 35.3241 116.79C31.8058 108.296 29.995 99.1932 29.995 90C29.995 80.8069 31.8058 71.7038 35.3241 63.2105C38.8424 54.7173 43.9992 47.0002 50.5 40.5ZM100 110C105.304 110 110.391 107.893 114.142 104.142C117.893 100.391 120 95.3044 120 90C120 84.6957 117.893 79.6086 114.142 75.8579C110.391 72.1072 105.304 70 100 70C94.6957 70 89.6086 72.1072 85.8579 75.8579C82.1072 79.6086 80 84.6957 80 90C80 95.3044 82.1072 100.391 85.8579 104.142C89.6086 107.893 94.6957 110 100 110Z" fill="black"/>
</svg>
